<svg xmlns="http://www.w3.org/2000/svg" viewBox="0 0 1420 512" role="img" aria-label="Fyndr logo lockup">
  <defs>
    <linearGradient id="fy-bg" x1="0" y1="0" x2="1" y2="1">
      <stop offset="0" stop-color="#272B36"/>
      <stop offset="0.55" stop-color="#14161D"/>
      <stop offset="1" stop-color="#090B0F"/>
    </linearGradient>
    <linearGradient id="fy-lime" x1="0" y1="0" x2="1" y2="1">
      <stop offset="0" stop-color="#DFFFAC"/>
      <stop offset="0.52" stop-color="#B9FF66"/>
      <stop offset="1" stop-color="#8ADB32"/>
    </linearGradient>
    <radialGradient id="fy-glow" cx="0.5" cy="0.42" r="0.62">
      <stop offset="0" stop-color="#B9FF66" stop-opacity="0.16"/>
      <stop offset="1" stop-color="#B9FF66" stop-opacity="0"/>
    </radialGradient>
  </defs>
  <g>
    <rect x="16" y="16" width="480" height="480" rx="128" fill="url(#fy-bg)"/>
    <rect x="16" y="16" width="480" height="480" rx="128" fill="url(#fy-glow)"/>
    <rect x="18" y="18" width="476" height="476" rx="126" fill="none" stroke="#FFFFFF" stroke-opacity="0.09" stroke-width="3"/>
    <g fill="none" stroke="url(#fy-lime)" stroke-width="28" stroke-linecap="round">
      <path d="M192 112 H142 Q112 112 112 142 V192"/>
      <path d="M320 112 H370 Q400 112 400 142 V192"/>
      <path d="M192 400 H142 Q112 400 112 370 V320"/>
      <path d="M320 400 H370 Q400 400 400 370 V320"/>
    </g>
    <circle cx="212" cy="234" r="18" fill="#F2F5EA"/>
    <circle cx="300" cy="234" r="18" fill="#F2F5EA"/>
    <path d="M198 288 Q256 342 314 288" fill="none" stroke="url(#fy-lime)" stroke-width="24" stroke-linecap="round"/>
  </g>
  <text x="560" y="270" font-family="Inter, 'Segoe UI', Arial, sans-serif" font-weight="800" font-size="168" letter-spacing="18" fill="#14161D" dominant-baseline="central">FYNDR<tspan fill="#65B816">.</tspan></text>
</svg>
